<svg width="600" height="600" xmlns="http://www.w3.org/2000/svg"><path
        d="
 M 137 47 C 131 54, 127, 62, 125, 70
 C 124 82, 124, 92, 128, 99
 C 120 92, 115, 84, 105, 80
 C 77 71, 96, 86, 108, 92
 C 106 99, 121, 100, 120, 109
 C 107 107, 89, 106, 77, 110
 C 92 111, 79, 117, 96, 117
 C 96 123, 89, 126, 84, 130
 C 87 130, 89, 127, 92, 127
 C 96 127, 97, 130, 94, 130
 C 99 128, 105, 128, 109, 126
 C 108 129, 108, 131, 107, 131
 C 111 130, 115, 129, 120, 130
 C 109 135, 99, 136, 90, 143
 C 85 148, 82, 151, 80, 155
 C 77 160, 75, 164, 76, 169
 C 86 151, 83, 169, 92, 151
 C 96 148, 96, 154, 94, 154
 C 98 150, 101, 146, 106, 143
 C 108 144, 106, 145, 106, 146
 C 108 143, 111, 142, 114, 139
 C 112 147, 107, 153, 106, 161
 C 104 172, 104, 181, 108, 188
 C 106 178, 115, 173, 114, 162
 C 117 158, 119, 163, 119, 164
 C 118 159, 120, 154, 121, 149
 C 125 151, 125, 151, 127, 148
 C 127 159, 125, 172, 128, 183
 C 130 193, 135, 200, 140, 206
 C 138 199, 136, 191, 134, 184
 C 139 183, 136, 185, 138, 185
 C 137 179, 134, 174, 134, 167
 C 138 164, 137, 167, 138, 168
 C 137 161, 136, 155, 137, 148
 C 137 145, 138, 144, 139, 144
 C 147 179, 152, 212, 159, 244
 C 159 255, 159, 264, 161, 272
 C 165 290, 172, 305, 183, 318
 C 189 324, 196, 329, 202, 333
 C 210 337, 215, 340, 221, 341
 C 243 344, 265, 343, 283, 338
 C 278 325, 271, 313, 267, 299
 C 264 284, 262, 271, 263, 257
 C 264 243, 267, 232, 270, 221
 C 274 207, 279, 195, 286, 185
 C 273 182, 263, 179, 250, 180
 C 238 178, 229, 180, 220, 181
 C 211 183, 205, 184, 200, 187
 C 190 191, 183, 195, 178, 202
 C 170 186, 164, 172, 159, 157
 L 161 155 L 162 154
 L 164 153 C 165 156, 167, 160, 169, 162
 C 168 161, 168, 160, 169, 159
 C 173 162, 176, 166, 180, 169
 C 181 168, 179, 168, 179, 166
 C 183 168, 184, 169, 186, 171
 C 187 165, 185, 162, 184, 157
 C 186 155, 187, 156, 186, 157
 L 188 160
 L 187 157 C 184 153, 182, 148, 179, 143
 L 178 141 L 179 141 L 181 142
 L 181 141 C 170 134, 168, 128, 159, 122
 C 161 118, 165, 121, 167, 121
 C 167 119, 165, 115, 169, 115
 C 179 118, 186, 122, 193, 127
 C 191 124, 185, 122, 188, 119
 C 197 123, 203, 127, 208, 132
 C 206 130, 207, 128, 204, 127
 C 206 125, 207, 124, 208, 126
 C 213 131, 219, 134, 222, 138
 C 218 130, 214, 122, 206, 116
 C 201 110, 197, 107, 192, 104
 C 184 100, 175, 102, 169, 101
 C 160 103, 154, 107, 149, 110
 L 147 110 L 147 109
 L 147 106 C 149 105, 151, 103, 153, 102
 L 152 100 L 151 101 L 151 100
 L 152 98 C 155 93, 160, 91, 165, 88
 C 164 88, 160, 88, 160, 85
 C 167 80, 172, 78, 177, 75
 L 177 74 L 175 73 L 178 73
 L 180 72 C 183 71, 186, 68, 190, 68
 C 185 69, 180, 69, 175, 69
 C 168 71, 163, 72, 159, 75
 C 150 83, 145, 92, 142, 101
 C 141 87, 140, 95, 137, 87
 C 139 80, 141, 77, 142, 73
 C 142 74, 139, 75, 139, 77
 C 134 75, 136, 72, 135, 70
 C 134 61, 135, 55, 137, 49"
        fill="rgb(52,184,32)"
/>
  <path
          d="
 M 111 266 C 111 325, 113, 385, 114, 444
 C 125 426, 134, 406, 146, 387
 C 162 399, 176, 410, 193, 416
 C 210 423, 225, 428, 242, 430
 C 256 431, 268, 430, 280, 431
 C 291 429, 301, 427, 310, 424
 C 336 418, 353, 402, 375, 392
 C 396 384, 416, 378, 437, 377
 C 452 376, 464, 378, 475, 379
 C 486 381, 494, 384, 502, 386
 C 519 392, 533, 399, 546, 407
 C 536 391, 523, 378, 507, 367
 C 489 356, 472, 349, 453, 346
 C 432 346, 413, 344, 397, 349
 C 370 354, 350, 362, 327, 368
 C 312 371, 300, 373, 288, 374
 C 273 375, 261, 375, 249, 375
 C 236 373, 227, 371, 218, 368
 C 202 364, 190, 358, 177, 351
 C 170 345, 164, 341, 159, 335
 C 147 325, 138, 316, 132, 306
 C 122 292, 117, 280, 112, 267"
          fill="rgb(1,1,1)"
  />
  <path
          d="
 M 340 179 C 325 179, 312, 181, 299, 185
 C 304 197, 310, 209, 313, 222
 C 316 233, 320, 243, 320, 253
 C 321 267, 320, 279, 318, 289
 C 315 308, 307, 323, 298, 337
 C 319 342, 339, 344, 358, 341
 C 370 339, 379, 334, 387, 329
 C 395 322, 401, 316, 405, 309
 C 412 299, 417, 290, 419, 280
 C 424 268, 424, 256, 423, 243
 C 421 231, 418, 221, 413, 211
 C 403 197, 391, 189, 378, 184
 C 366 181, 355, 179, 345, 179
 L 343 179 L 342 179"
          fill="rgb(223,46,4)"
  />
  <path
          d="
 M 454 243 C 453 244, 452, 243, 451, 244
 C 427 249, 442, 266, 456, 265
 C 461 267, 464, 266, 467, 265
 C 475 262, 480, 260, 485, 256
 C 480 249, 474, 245, 467, 243
 C 461 242, 459, 243, 456, 243"
          fill="rgb(223,45,5)"
  />
  <path
          d="
 M 451 293 C 450 294, 449, 293, 448, 294
 C 426 298, 433, 314, 449, 316
 C 455 316, 460, 317, 464, 315
 C 472 313, 477, 309, 481, 306
 C 474 299, 468, 294, 460, 293
 C 456 293, 454, 292, 453, 293"
          fill="rgb(223,44,4)"
  />
  <path
          d="
 M 440 187 M 439 188 M 438 188
 L 436 189 C 426 191, 419, 201, 434, 206
 C 438 209, 441, 210, 446, 209
 C 457 210, 465, 205, 473, 199
 C 467 193, 461, 188, 454, 187
 C 448 187, 445, 186, 442, 187"
          fill="rgb(223,45,5)"
  />
  <path
          d="
 M 415 128 C 406 131, 397, 135, 390, 143
 C 382 152, 378, 160, 376, 170
 C 379 172, 384, 170, 387, 170
 C 393 166, 397, 163, 400, 159
 C 409 149, 413, 138, 417, 128"
          fill="rgb(221,44,5)"
  />
  <path
          d="
 M 344 121 C 338 124, 332, 130, 327, 136
 C 322 146, 319, 154, 318, 163
 C 326 162, 331, 157, 334, 151
 C 341 141, 342, 132, 345, 123"
          fill="rgb(221,43,5)"
  /></svg>
